<svg width="508" height="80" viewBox="0 0 508 80" fill="none" xmlns="http://www.w3.org/2000/svg">
<path fill-rule="evenodd" clip-rule="evenodd" d="M0.0609131 80V0.861816H31.4413C40.0309 0.861816 47.635 2.3261 54.0545 5.49805C60.471 8.66857 65.4346 13.3194 68.766 19.4237C72.1425 25.4253 73.7073 32.4825 73.7073 40.3819C73.7073 48.2325 72.1361 55.2788 68.7726 61.328C65.447 67.4277 60.4952 72.1058 54.0966 75.3427L54.0756 75.3534L54.0545 75.3638C47.635 78.5357 40.0309 80 31.4413 80H0.0609131ZM64.3923 58.9168C67.269 53.7519 68.7073 47.5736 68.7073 40.3819C68.7073 33.1248 67.269 26.9465 64.3923 21.847C61.581 16.682 57.3967 12.7266 51.8395 9.98069C46.2823 7.23477 39.4829 5.86182 31.4413 5.86182H5.06091V75H31.4413C39.4829 75 46.2823 73.6271 51.8395 70.8811C57.3967 68.0699 61.581 64.0817 64.3923 58.9168ZM44.2644 27.3234L44.2488 27.3084C41.8237 24.9683 37.6034 23.3165 30.5587 23.3165H25.3596V57.4473H30.5587C37.6034 57.4473 41.8237 55.7955 44.2488 53.4554C46.7184 51.0703 48.4086 47.0485 48.4086 40.3819C48.4086 33.6257 46.707 29.6397 44.2802 27.3384L44.2644 27.3234ZM47.7207 57.0535C43.9941 60.6494 38.2734 62.4473 30.5587 62.4473H20.3596V18.3165H30.5587C38.2734 18.3165 43.9941 20.1144 47.7207 23.7103C51.5126 27.3061 53.4086 32.8633 53.4086 40.3819C53.4086 47.8351 51.5126 53.3923 47.7207 57.0535ZM63.1507 80L99.5207 0.861816H118.565L155.384 80H128.766L122.259 64.9956H96.1367L89.6297 80H63.1507ZM92.8551 59.9956H125.541L132.048 75H147.543L115.376 5.86182H102.726L70.9514 75H86.3481L92.8551 59.9956ZM109.394 21.945H109.002L97.9221 48.2274H120.732L109.394 21.945ZM112.493 41.7529L109.249 34.231L106.055 41.8077L106.252 41.6707L105.577 43.2274H112.819L112.041 41.4343L112.493 41.7529ZM158.857 80V47.7398L127.299 0.861816H157.076L171.801 23.7847L186.526 0.861816H301.396V23.3165H279.429V80H254.13V23.3165H234.138V80H208.839V11.0823L184.156 47.8667V80H158.857ZM179.156 46.3446L206.321 5.86182H189.257L171.801 33.0359L154.345 5.86182H136.692L163.857 46.2136V75H179.156V46.3446ZM259.13 18.3165V75H274.429V18.3165H296.396V5.86182H237.163V18.3165H259.13ZM281.027 80L317.397 0.861816H336.441L373.26 80H346.643L340.136 64.9956H314.013L307.506 80H281.027ZM310.732 59.9956H343.417L349.924 75H365.419L333.253 5.86182H320.602L288.828 75H304.225L310.732 59.9956ZM327.271 21.945H326.878L315.799 48.2274H338.608L327.271 21.945ZM330.37 41.7529L327.125 34.231L323.931 41.8077L324.129 41.6707L323.454 43.2274H330.696L329.918 41.4343L330.37 41.7529ZM384.671 80L349.087 0.861816H376.594L394.525 42.8248L412.456 0.861816H439.374L403.79 80H384.671ZM394.525 55.5495L373.293 5.86182H356.818L387.905 75H400.556L431.644 5.86182H415.757L394.525 55.5495ZM415.297 80L451.667 0.861816H470.711L507.53 80H480.912L474.405 64.9956H448.283L441.776 80H415.297ZM445.001 59.9956H477.687L484.194 75H499.689L467.522 5.86182H454.871L423.097 75H438.494L445.001 59.9956ZM461.54 21.945H461.148L450.068 48.2274H472.878L461.54 21.945ZM464.639 41.7529L461.395 34.231L458.2 41.8077L458.398 41.6707L457.723 43.2274H464.965L464.187 41.4343L464.639 41.7529ZM213.839 75H229.138V5.86182H213.839V75Z" fill="#D2D2D2"/>
</svg>
