<svg width="21" height="20" viewBox="0 0 21 20" fill="none" xmlns="http://www.w3.org/2000/svg">
<g clip-path="url(#clip0_675_403)">
<path d="M10.5 20C16.0228 20 20.5 15.5228 20.5 10C20.5 4.47715 16.0228 0 10.5 0C4.97715 0 0.5 4.47715 0.5 10C0.5 15.5228 4.97715 20 10.5 20Z" fill="#FFCC4D"/>
<path d="M4.38833 9.44439C4.305 9.44439 4.22 9.4255 4.14056 9.38606C3.86611 9.24883 3.755 8.91495 3.89222 8.6405C3.92111 8.58217 4.62444 7.22217 6.61111 7.22217C8.59833 7.22217 9.30111 8.58272 9.33 8.6405C9.46722 8.91495 9.35556 9.24883 9.08167 9.38606C8.80889 9.52328 8.47889 9.41328 8.33944 9.14383C8.315 9.09883 7.87778 8.33328 6.61111 8.33328C5.32389 8.33328 4.88944 9.12939 4.88556 9.13717C4.78833 9.33217 4.59222 9.44439 4.38833 9.44439ZM16.6111 9.44439C16.6944 9.44439 16.7794 9.4255 16.8589 9.38606C17.1333 9.24883 17.2444 8.91495 17.1072 8.6405C17.0783 8.58217 16.375 7.22217 14.3883 7.22217C12.4011 7.22217 11.6983 8.58272 11.6694 8.6405C11.5322 8.91495 11.6439 9.24883 11.9178 9.38606C12.1906 9.52328 12.5206 9.41328 12.66 9.14383C12.6844 9.09883 13.1217 8.33328 14.3883 8.33328C15.6756 8.33328 16.11 9.12939 16.1139 9.13717C16.2111 9.33217 16.4072 9.44439 16.6111 9.44439ZM16.8906 13.0666C17.07 12.6505 17.1467 12.3683 17.1494 12.3572C17.2239 12.0605 17.0439 11.7599 16.7467 11.6849C16.4489 11.6094 16.1483 11.7894 16.0717 12.0866C16.0306 12.2505 14.9894 16.1111 10.5 16.1111C6.01056 16.1111 4.96944 12.2505 4.92778 12.0861C4.85111 11.7894 4.55056 11.6094 4.25278 11.6844C3.95611 11.7594 3.77611 12.0599 3.85 12.3566C3.86222 12.4055 5.12833 17.2222 10.5 17.2222C11.4167 17.2222 12.2056 17.0744 12.8972 16.8416C15.3028 16.0316 16.4383 14.1138 16.8906 13.0666Z" fill="#664500"/>
<path d="M18.5039 14.8228L16.8617 13.1278C16.8617 13.1278 16.4839 12.8845 16.1544 13.4433C15.7211 14.1778 15.0017 15.0739 13.9689 15.7606C13.535 16.0489 12.7806 16.4211 12.4706 16.4928C12.0622 16.5867 12.255 17.0283 12.255 17.0283C12.58 16.9578 12.8389 16.8611 12.8389 16.8611L13.0033 17.0256L14.5178 18.54C15.4778 19.5 17.2956 19.6511 18.4067 18.54C19.5178 17.4289 19.4644 15.7833 18.5039 14.8228Z" fill="#E75B70"/>
<path d="M17.1194 17.2633C17.2378 17.145 17.2378 16.9533 17.1194 16.835L15.1033 14.8188L14.6611 15.2344L16.6906 17.2638C16.8089 17.3816 17.0011 17.3816 17.1194 17.2633Z" fill="#DE3146"/>
</g>
<defs>
<clipPath id="clip0_675_403">
<rect width="20" height="20" fill="white" transform="translate(0.5)"/>
</clipPath>
</defs>
</svg>
