<svg width="20" height="20" viewBox="0 0 20 20" fill="none" xmlns="http://www.w3.org/2000/svg">
<g clip-path="url(#clip0_675_424)">
<path d="M10.6017 19.7222L6.80556 6.82886C6.80556 6.82886 6.01667 7.25164 5.35889 7.7383C5.185 7.86664 4.26056 9.2883 4.07444 9.42719C3.09556 10.1577 2.10111 11.0055 1.96778 11.1866C1.71278 11.5333 0 20 0 20L10.6017 19.7222Z" fill="black"/>
<path d="M17.7778 19.4444L14.7222 8.4722L10 2.52332L7.015 4.85276L6.47556 5.50387C6.25 5.93776 5.55556 8.4722 5.55556 8.4722L4.86111 11.1111L1.80667 16.6966L0.509445 19.3283L17.7778 19.4444Z" fill="#4B545D"/>
<path d="M1.80666 16.6966C1.80666 16.6966 6.18055 10.7061 6.19221 10.3699C6.20388 10.0344 5.55555 8.47217 5.55555 8.47217L4.8611 11.1111L1.80666 16.6966Z" fill="black"/>
<path d="M6.66666 18.8888H7.77778L8.88889 10.1388L9.57444 9.14051L11.5622 6.23274L11.6144 5.41663L9.78833 7.89107L8.33333 9.86218L7.00666 13.9522L6.66666 15L5.67166 16.7411L4.44444 18.8888H6.66666ZM13.3661 9.10218L12.2744 12.3783L11.6667 14.4444L13.2178 18.6805L15.1911 18.6461C15.1911 18.6461 12.7778 14.7916 12.7778 14.4444C12.7778 14.3777 13.125 12.9516 13.125 12.9516L13.7328 10.4344L13.8889 9.58329L13.3661 9.10218Z" fill="black"/>
<path d="M13.3661 9.10223L12.3783 8.73279L11.5278 9.2189L10.79 8.62834L9.57443 9.14057L11.5622 6.23279L13.3661 9.10223ZM14.9611 13.2017L14.0105 12.4306L13.125 12.9517L13.7328 10.4339L14.5311 11.7017L14.9611 13.2017Z" fill="#F1F1F1"/>
<path d="M12.2745 12.3783L11.6667 14.4444L11.5278 13.1017L12.2745 12.3783ZM6.66668 15L5.67168 16.7411L5.86779 15.3906C5.86779 15.3906 6.24668 15.0694 6.3889 14.8844C6.53057 14.6994 7.00668 13.9522 7.00668 13.9522L6.66668 15ZM8.4489 8.88889L9.78834 7.89111L8.33334 9.86222L8.4489 8.88889Z" fill="black"/>
<path d="M20 20C20 20 19.7867 17.8639 19.5256 16.065C19.3206 14.6522 17.9939 12.5633 17.2483 12.1122L16.5628 10.1478L15.4389 7.31332L14.1844 6.04165L13.16 5.13832L12.8794 4.79332L10 2.52332L11.2717 5.30498L11.5628 6.23276L13.3661 9.10221L13.7328 10.4339L14.5317 11.7011L14.9617 13.2016L15.5556 15.2778L14.4444 18.8889L20 20Z" fill="black"/>
<path d="M18.7267 18.0211C17.9794 18.0211 15.9722 18.3333 15.6944 18.3333C14.5833 18.3333 13.3333 17.3611 12.7778 17.3611C12.2222 17.3611 10.7811 18.3333 9.67 18.3333C8.73222 18.3333 8.33333 17.8822 7.04833 17.8822C6.63278 17.8822 4.77278 18.3661 4.375 18.3161C3.36222 18.1894 2.84167 17.7778 2.58667 17.7778C1.11111 17.7778 0 20 0 20H20C20 20 19.5139 18.0211 18.7267 18.0211Z" fill="#5C903F"/>
<path d="M7.015 4.85278L8.19444 4.58333L8.55889 5.60778L9.73944 5.12167L11.2717 5.305L10 1.25L7.015 4.85278Z" fill="#F1F1F1"/>
<path d="M12.8794 4.79333L12.0778 4.65833L11.2717 5.305L10 1.25L12.8794 4.79333ZM15.5294 7.22222L16.5622 10.1478L15.6017 8.57667L14.705 7.67389L14.1839 6.04167L15.5294 7.22222ZM19.5256 16.065C19.5256 16.065 19.4444 13.9067 18.8194 13.1944C18.1944 12.4822 17.2222 12.095 17.2222 12.095L18.0211 13.9122L18.8311 14.6994L19.5256 16.065Z" fill="#A8B6C0"/>
</g>
<defs>
<clipPath id="clip0_675_424">
<rect width="20" height="20" fill="white"/>
</clipPath>
</defs>
</svg>
