<svg width="22" height="22" viewBox="0 0 22 22" fill="none" xmlns="http://www.w3.org/2000/svg">
<path d="M21.3889 22.0001V18.9445C21.3889 16.9193 19.7474 15.2778 17.7222 15.2778H7.94444C5.91983 15.2778 4.27777 16.9193 4.27777 18.9445V22.0001H21.3889Z" fill="#FA743E"/>
<path d="M10.1689 15.3425C10.1689 15.8888 11.6111 16.5604 12.8333 16.5604C14.0556 16.5604 15.4972 15.8888 15.4972 15.3431V13.0105H10.1683V15.3425H10.1689Z" fill="#FFDC5D"/>
<path d="M10.164 14.1295C10.9071 14.9691 11.8287 15.1965 12.8309 15.1965C13.8325 15.1965 14.7534 14.9685 15.4972 14.1295V11.9961H10.1634V14.1295H10.164Z" fill="#F9CA55"/>
<path d="M15.1134 0.324553C13.937 -0.0561695 11.1686 0.0477194 10.4763 0.947275C8.67715 0.982108 6.56637 2.60827 6.28954 4.75327C6.01576 6.87688 6.62626 7.86261 6.8432 9.45944C7.08948 11.2683 8.10637 11.8471 8.91915 12.0891C10.0888 13.6346 11.3324 13.5686 13.4206 13.5686C17.4979 13.5686 19.44 10.8406 19.6118 6.2065C19.7156 3.40455 18.0711 1.28155 15.1134 0.324553Z" fill="#FFAC33"/>
<path d="M17.4454 6.40511C17.0506 5.85878 16.5459 5.41878 15.4385 5.26355C15.8541 5.45361 16.2519 6.11117 16.3039 6.47478C16.3558 6.83839 16.4077 7.13233 16.079 6.76872C14.762 5.31305 13.3277 5.88628 11.9069 4.99711C10.9145 4.37622 10.612 3.68872 10.612 3.68872C10.612 3.68872 10.491 4.60539 8.9858 5.53978C8.54947 5.8105 8.0288 6.41367 7.74035 7.30467C7.53258 7.94511 7.59735 8.51589 7.59735 9.49122C7.59735 12.339 9.94463 14.7333 12.8395 14.7333C15.7343 14.7333 18.0816 12.3176 18.0816 9.49122C18.0804 7.72022 17.8952 7.02783 17.4454 6.40511Z" fill="#FFDC5D"/>
<path d="M13.4206 10.9475H12.2558C12.0951 10.9475 11.9643 10.8173 11.9643 10.656C11.9643 10.4947 12.0945 10.3645 12.2558 10.3645H13.4206C13.5813 10.3645 13.7121 10.4947 13.7121 10.656C13.7121 10.8173 13.5819 10.9475 13.4206 10.9475Z" fill="#C1694F"/>
<path d="M10.508 8.90879C10.1866 8.90879 9.92566 8.64784 9.92566 8.3264V7.74401C9.92566 7.42257 10.1866 7.16162 10.508 7.16162C10.8295 7.16162 11.0904 7.42257 11.0904 7.74401V8.3264C11.091 8.64845 10.8301 8.90879 10.508 8.90879ZM15.1684 8.90879C14.8469 8.90879 14.586 8.64784 14.586 8.3264V7.74401C14.586 7.42257 14.8469 7.16162 15.1684 7.16162C15.4898 7.16162 15.7508 7.42257 15.7508 7.74401V8.3264C15.7508 8.64845 15.4898 8.90879 15.1684 8.90879Z" fill="#662113"/>
<path d="M12.9152 13.3797C11.2322 13.3797 10.7152 12.9489 10.6291 12.8615C10.4726 12.705 10.4726 12.4514 10.6291 12.295C10.7806 12.1434 11.0238 12.1391 11.1803 12.2809C11.2121 12.3035 11.6209 12.5785 12.9152 12.5785C14.2597 12.5785 14.6483 12.2821 14.652 12.2791C14.8084 12.1232 15.0535 12.1306 15.2099 12.2882C15.3664 12.4447 15.3578 12.7056 15.2014 12.8615C15.1146 12.9489 14.5982 13.3797 12.9152 13.3797Z" fill="#C1694F"/>
<path d="M20.1667 21.3889C20.1667 21.7269 19.8935 22.0001 19.5556 22.0001H13.4445C13.1065 22.0001 12.8333 21.7269 12.8333 21.3889C12.8333 21.051 13.1065 20.7778 13.4445 20.7778H19.5556C19.8935 20.7778 20.1667 21.051 20.1667 21.3889Z" fill="black"/>
<path d="M12.3689 13.4445H2.29716C1.36583 13.4445 0.171715 13.9156 0.782826 15.6023L2.66016 20.7815C2.66077 20.7815 2.90277 22 4.27777 22H16.5L14.0555 15.1311C13.7879 14.3232 13.3008 13.4445 12.3689 13.4445Z" fill="black"/>
<path d="M11.7578 13.4445H1.68605C0.754712 13.4445 -0.439399 13.9156 0.171712 15.6023L2.04905 20.7815C2.04966 20.7815 2.29166 22 3.66666 22H15.8889L13.4444 15.1311C13.1768 14.3232 12.6897 13.4445 11.7578 13.4445Z" fill="#99AAB5"/>
<path d="M8.56717 17.8952C8.88739 18.8559 8.62767 19.808 7.98722 20.0213C7.34678 20.2352 6.56822 19.6295 6.248 18.6689C5.92778 17.7082 6.1875 16.7561 6.82794 16.5428C7.46839 16.3295 8.24756 16.9345 8.56717 17.8952ZM11.6111 15.125H1.83333C1.58033 15.125 1.375 14.9197 1.375 14.6667C1.375 14.4137 1.58033 14.2084 1.83333 14.2084H11.6111C11.8641 14.2084 12.0694 14.4137 12.0694 14.6667C12.0694 14.9197 11.8641 15.125 11.6111 15.125Z" fill="black"/>
</svg>
