<svg width="552" height="81" viewBox="0 0 552 81" fill="none" xmlns="http://www.w3.org/2000/svg">
<path fill-rule="evenodd" clip-rule="evenodd" d="M0.598755 0.586304H25.7371V45.47C25.7371 50.3376 26.7761 53.1861 28.0787 54.7955C29.2192 56.1353 31.2897 57.258 35.3902 57.258C39.3376 57.258 41.3692 56.1495 42.529 54.7703L42.5502 54.7451L42.5717 54.7202C43.9523 53.1216 45.0434 50.3109 45.0434 45.47V0.586304H69.9876V45.373C69.9876 55.9929 67.293 64.8816 61.0621 71.1198C54.8799 77.3751 46.0042 80.0674 35.3902 80.0674C24.6087 80.0674 15.6144 77.3884 9.41528 71.1076C3.25535 64.8667 0.598755 55.9826 0.598755 45.373V0.586304ZM57.5155 67.5953C62.4969 62.6139 64.9876 55.2064 64.9876 45.373V5.5863H50.0434V45.47C50.0434 50.969 48.8142 55.1417 46.3558 57.9883C43.9622 60.8348 40.307 62.258 35.3902 62.258C30.3441 62.258 26.6242 60.8348 24.2306 57.9883C21.9016 55.1417 20.7371 50.969 20.7371 45.47V5.5863H5.59875V45.373C5.59875 55.2064 8.05712 62.6139 12.9738 67.5953C17.8906 72.5767 25.3627 75.0674 35.3902 75.0674C45.2237 75.0674 52.5988 72.5767 57.5155 67.5953ZM73.3883 79V0.586304H110.315C118.747 0.586304 125.999 2.63821 131.197 7.56254C136.409 12.3714 138.799 18.8821 138.799 26.45C138.799 33.9897 136.389 40.4937 131.229 45.4045L131.227 45.406C126.027 50.351 118.763 52.4108 110.315 52.4108H98.5267V79H73.3883ZM93.5267 47.4108H110.315C118.013 47.4108 123.836 45.5347 127.782 41.7825C131.793 37.9655 133.799 32.8547 133.799 26.45C133.799 19.9807 131.793 14.9022 127.782 11.2147C123.836 7.46242 118.013 5.5863 110.315 5.5863H78.3883V74H93.5267V47.4108ZM113.064 29.5433L113.098 29.5132C113.637 29.0324 114.145 28.2458 114.145 26.45C114.145 24.6474 113.636 23.9464 113.174 23.5505L113.102 23.4882L113.031 23.423C112.59 23.0141 111.376 22.3282 108.374 22.3282H98.5267V30.6689H108.374C111.376 30.6689 112.59 29.9831 113.031 29.5741L113.064 29.5433ZM93.5267 35.6689V17.3282H108.374C111.997 17.3282 114.682 18.1369 116.428 19.7542C118.24 21.3069 119.145 23.5388 119.145 26.45C119.145 29.3613 118.24 31.6255 116.428 33.2429C114.682 34.8602 111.997 35.6689 108.374 35.6689H93.5267ZM120.815 79L156.852 0.586304H175.763L205.303 64.0791V0.586304H236.407C244.912 0.586304 252.445 2.0362 258.806 5.17938C265.165 8.32112 270.084 12.9305 273.386 18.9807C276.733 24.9288 278.282 31.9213 278.282 39.7446C278.282 47.5208 276.726 54.5031 273.392 60.4986C270.096 66.5432 265.188 71.1787 258.848 74.3858L258.827 74.3965L258.806 74.4069C252.445 77.5501 244.912 79 236.407 79H185.79L179.351 64.1527H153.571L147.132 79H120.815ZM143.851 74H128.615L160.056 5.5863H172.575L204.404 74H189.072L182.633 59.1527H150.289L143.851 74ZM166.655 21.501H166.267L155.303 47.5079H177.874L166.655 21.501ZM169.6 40.9513L166.512 33.7918L163.469 41.0096L163.667 40.8721L162.958 42.5079H169.964L169.152 40.6357L169.6 40.9513ZM269.013 21.4039C266.231 16.2931 262.09 12.3791 256.591 9.66201C251.092 6.94487 244.364 5.5863 236.407 5.5863H210.303V74H236.407C244.364 74 251.092 72.6414 256.591 69.9243C262.09 67.1424 266.231 63.1961 269.013 58.0853C271.859 52.9745 273.282 46.8609 273.282 39.7446C273.282 32.5636 271.859 26.45 269.013 21.4039ZM249.059 26.8609L249.044 26.8458C246.658 24.5434 242.497 22.9105 235.534 22.9105H230.441V56.5788H235.534C242.496 56.5788 246.656 54.9463 249.043 52.6445M225.441 61.5788V17.9105H235.534C243.167 17.9105 248.828 19.6895 252.516 23.2477C256.268 26.8059 258.144 32.3048 258.144 39.7446C258.144 47.1197 256.268 52.6187 252.516 56.2415C248.828 59.7997 243.167 61.5788 235.534 61.5788H225.441ZM249.059 26.8609L249.075 26.8758L249.059 26.8609ZM249.044 52.6434C251.474 50.2967 253.144 46.3331 253.144 39.7446C253.144 33.0672 251.462 29.1394 249.075 26.8758M280.168 79V0.586304H305.307V28.0488H326.651V0.586304H370.704L385.246 23.2245L399.788 0.586304H428.781L397.524 47.167V79H372.386V47.0414L351.886 16.5906V79H326.651V50.5671H305.307V79H280.168ZM300.307 74H285.168V5.5863H300.307V33.0488H331.651V5.5863H346.886V74H331.651V45.5671H300.307V74ZM377.386 45.5152V74H392.524V45.6449L419.404 5.5863H402.519L385.246 32.4756L367.973 5.5863H350.505L377.386 45.5152ZM400.849 79L436.886 0.586304H455.797L492.279 79H465.824L459.385 64.1527H433.605L427.166 79H400.849ZM423.885 74H408.65L440.091 5.5863H452.609L484.438 74H469.106L462.667 59.1527H430.324L423.885 74ZM446.689 21.501H446.301L435.338 47.5079H457.908L446.689 21.501ZM449.634 40.9513L446.546 33.7918L443.503 41.0096L443.702 40.8721L442.992 42.5079H449.999L449.187 40.6357L449.634 40.9513ZM495.582 79V47.0414L464.308 0.586304H493.9L508.442 23.2245L522.985 0.586304H551.977L520.72 47.167V79H495.582ZM542.6 5.5863H525.715L508.442 32.4756L491.169 5.5863H473.702L500.582 45.5152V74H515.72V45.6449L542.6 5.5863Z" fill="#D2D2D2"/>
</svg>
