<svg width="21" height="20" viewBox="0 0 21 20" fill="none" xmlns="http://www.w3.org/2000/svg">
<circle cx="10.5" cy="10" r="10" fill="url(#paint0_linear_675_410)"/>
<path d="M14.9112 8.23306C14.8134 8.2977 14.7133 8.3591 14.6133 8.42019C14.7583 8.40721 14.8238 8.47923 15.0229 8.42344C14.9886 8.5294 14.9617 8.61884 14.9311 8.7068C14.7476 9.25314 14.5595 9.7989 14.3768 10.3467C14.366 10.3855 14.3472 10.4218 14.3216 10.4534C14.2959 10.4851 14.264 10.5114 14.2276 10.5309C14.056 10.6248 13.8893 10.726 13.721 10.8261C13.892 10.8461 14.0881 10.8759 14.2218 10.8686C14.0688 11.2195 13.9449 11.5528 13.7831 11.868C13.6629 12.1006 13.4968 12.3107 13.3469 12.5283C13.2857 12.6168 13.194 12.649 13.0808 12.6339C12.9676 12.6189 12.8563 12.6215 12.7443 12.6162C12.7422 12.6257 12.7403 12.6354 12.7379 12.6457C12.8749 12.6912 13.011 12.7372 13.1496 12.7839C12.8373 13.4607 11.2947 14.577 10.5235 14.6233C10.578 14.474 11.0628 13.4648 11.1182 13.3161C11.8217 11.4317 12.6063 9.58402 13.6314 7.83577C13.6219 7.82633 13.6121 7.81747 13.6008 7.80862C13.5702 7.83282 13.5277 7.85053 13.509 7.88211C13.2949 8.23631 13.0692 8.58814 12.8719 8.95296C12.3133 9.98603 11.8597 11.0643 11.4109 12.1452C11.2659 12.4946 11.1197 12.8435 10.9723 13.1918C10.763 13.6922 10.5516 14.1917 10.3378 14.6903C10.2938 14.7935 10.25 14.8964 10.2063 14.9991C10.1268 15.1841 10.0228 15.3595 9.93101 15.5395C9.91755 15.5655 9.90042 15.5894 9.8836 15.6139L9.87197 15.5994C9.96741 15.294 10.0631 14.989 10.1589 14.6844C8.24157 14.5799 6.78583 13.4141 6.78583 11.1637V6.06775H8.94084V11.1758C8.94084 12.1856 9.4581 12.7697 10.4789 12.7697C10.4957 12.7708 10.5125 12.7731 10.529 12.7765C10.5267 12.7689 10.5236 12.7615 10.5199 12.7544C10.4165 12.5427 10.3097 12.3326 10.2023 12.1227C10.1806 12.0802 10.1503 12.0427 10.1106 11.9813C10.2894 12.0472 10.4431 12.1645 10.5507 12.3172C10.561 12.2822 10.5688 12.2466 10.5743 12.2107C10.6153 11.4577 10.7771 10.7275 11.0258 10.015C11.5602 8.48188 12.3531 7.08665 13.4255 5.84313C13.5568 5.69149 13.7026 5.55206 13.8608 5.42665C14.1211 5.22004 14.3863 5.25752 14.579 5.52081C15.0379 6.14951 15.2119 6.84904 15.1107 7.61086C15.0872 7.77583 15.0537 7.93934 15.0104 8.10053C14.9938 8.15426 14.9589 8.20098 14.9112 8.23306Z" fill="black"/>
<defs>
<linearGradient id="paint0_linear_675_410" x1="10.5" y1="0" x2="10.5" y2="20" gradientUnits="userSpaceOnUse">
<stop stop-color="#FA7925"/>
<stop offset="1" stop-color="#D34949"/>
</linearGradient>
</defs>
</svg>
